<?xml version="1.0" standalone="no"?>
<!DOCTYPE svg PUBLIC "-//W3C//DTD SVG 1.0//EN" "http://www.w3.org/TR/2001/REC-SVG-20010904/DTD/svg10.dtd">
<svg xmlns="http://www.w3.org/2000/svg" xmlns:xlink="http://www.w3.org/1999/xlink" id="body_1" width="355" height="494">

<g transform="matrix(0.42965862 0 0 0.42965862 -62.063713 -98.39183)">
	<g>
		<g transform="matrix(1 0 0 1 147 639)">
			<g>
                <path d="M790.74786 715.5433C 810.0739 714.6103 802.3009 680.8053 800.9139 668.3903C 785.6129 623.04626 789.2099 573.5743 783.1919 526.04626C 779.4429 481.67828 774.6259 437.4483 770.5739 393.1143C 762.6159 303.1203 705.4689 119.916435 640.2536 90.45279C 632.0386 54.40679 598.10767 20.758562 555.17773 20.758562C 525.89777 -13.900437 490.65488 -38.29271 445.45187 -33.36771C 426.77188 -32.517708 408.6561 -12.705709 390.75708 -8.879709C 380.73508 -7.4977098 291.7949 -11.054709 273.97888 -0.47370967C 261.56888 5.89829 250.36589 17.67329 254.0149 32.66429C 259.83688 50.82629 241.7439 31.17429 204.00089 50.55929C 127.03768 96.78245 173.02768 158.61893 175.06569 160.53493C 127.03768 227.35793 85.05889 281.57028 65.63589 363.24728C 53.04789 423.8863 54.46489 486.4853 43.91789 547.4353C 40.19389 568.5693 34.48089 588.9803 28.29889 609.5033C 21.598888 636.3623 18.34105 703.30597 14.648049 703.90393C 7.921049 705.57495 18.535889 719.38727 25.663889 719.3983C 223.28789 752.17926 424.02588 720.7563 622.7119 715.6223C 678.7049 713.6753 734.7579 713.2263 790.74786 715.5433z" stroke="none" fill="#D08B5B" fill-rule="nonzero" />
                <path d="M391.0055 49.961937C 391.0055 70.99382 464.03564 149.14584 489.23904 143.99002C 506.04132 140.5528 531.428 118.136536 565.399 76.741234L565.399 76.741234L565.399 49.961937L558.06213 20.809328C 599.6218 22.274212 632.22345 55.217968 640.2536 90.45279C 704.8168 119.621796 761.47217 299.4716 770.32043 390.38675L770.32043 390.38675L770.5739 393.1143C 774.6259 437.4483 779.4429 481.67828 783.1919 526.04626C 789.2099 573.5743 785.6129 623.04626 800.9139 668.3903L800.9139 668.3903L801.0045 669.1604C 802.60095 682.14435 809.6874 714.62897 790.74786 715.5433C 734.7579 713.2263 678.7049 713.6753 622.7119 715.6223C 424.02588 720.7563 223.28789 752.17926 25.663889 719.3983C 18.535889 719.38727 7.921049 705.57495 14.648049 703.90393C 18.34105 703.30597 21.598888 636.3623 28.29889 609.5033L28.29889 609.5033L29.570732 605.2585C 35.25943 586.16156 40.450718 567.11176 43.91789 547.4353C 54.46489 486.4853 53.04789 423.8863 65.63589 363.24728C 85.05889 281.57028 127.03768 227.35793 175.06569 160.53493C 173.02768 158.61893 127.03768 96.78245 204.00089 50.55929C 241.7439 31.17429 259.83688 50.82629 254.0149 32.66429C 250.36589 17.67329 261.56888 5.89829 273.97888 -0.47370967C 291.7949 -11.054709 380.73508 -7.4977098 390.75708 -8.879709C 395.41278 -9.874888 400.08316 -11.951631 404.7743 -14.494913L404.7743 -14.494913L403.96054 -11.785211C 395.3237 17.160706 391.0055 37.743305 391.0055 49.961937z" stroke="none" fill="#9FD8E5" fill-rule="nonzero" />
                <path d="M491.21918 166.43309C 491.3112 165.52809 492.5312 165.53009 492.62518 166.43309L492.62518 166.43309L494.02045 179.90224C 495.71805 196.35231 497.35233 212.77037 498.5372 229.29709C 500.0142 249.9061 501.0022 270.5101 501.47818 291.1651C 503.13818 363.10208 503.4682 435.0771 503.6082 507.0321C 513.3392 506.3581 523.07117 505.70908 532.80817 505.0811C 539.4142 504.65442 546.0206 504.2451 552.6278 503.84244L552.6278 503.84244L569.47516 502.82083L576.4112 502.39508C 581.0982 502.1051 586.4232 500.92508 589.7002 505.0771C 591.0122 506.7391 591.67017 508.89908 590.4472 510.8721C 587.62616 515.4231 583.2932 515.2641 578.3922 515.46106C 573.7682 515.6481 569.14417 515.8311 564.5202 516.0091C 554.6112 516.3941 544.7032 516.7571 534.7912 517.0351C 524.38916 517.3271 513.9922 517.5641 503.59418 517.7411C 503.48898 548.1176 502.23215 578.4563 500.8731 608.7993L500.8731 608.7993L500.25818 622.4541C 498.59518 659.38007 496.80618 696.3381 494.2652 733.2151C 494.05618 736.2341 489.7852 736.2281 489.5782 733.2151C 486.7162 691.6861 484.8282 650.0681 482.95618 608.4831C 481.59818 578.3321 480.8082 548.1731 480.4322 518.0101C 479.0572 518.0191 477.6832 518.0381 476.3092 518.0431C 437.2822 518.2131 398.2652 518.3831 359.2382 518.0171C 359.3032 518.0941 359.3672 518.1711 359.4102 518.2731C 362.2342 524.94006 362.50317 533.4481 362.4342 540.6031C 362.3552 548.8091 361.25018 556.9151 359.3602 564.8951C 352.5888 593.48334 335.12314 619.0888 315.2307 640.25836L315.2307 640.25836L314.58118 640.9471C 309.8892 645.9051 304.5062 650.8861 301.62518 657.2011C 298.68237 663.6491 297.66092 671.1913 296.2088 678.1195L296.2088 678.1195L296.03918 678.9161L290.36118 705.1421C 288.5572 713.4721 288.0452 725.6211 281.4512 731.6311C 275.2992 737.2391 267.1492 734.3101 264.25418 727.0901C 261.9932 721.4551 264.24518 715.2661 265.5842 709.6341L265.5842 709.6341L276.07532 665.53406C 277.79916 658.3424 279.68277 651.1035 283.4032 644.64307C 287.2142 638.02606 292.80118 633.22906 298.5022 628.3211C 309.29718 619.0271 319.20718 608.3871 327.5882 596.86707C 335.9662 585.3511 343.1262 572.6571 348.1472 559.3091C 350.6612 552.6271 352.7212 545.6851 354.14218 538.6871C 355.4932 532.0461 355.4812 525.1681 356.92618 518.5981C 357.02518 518.1441 357.4082 517.83307 357.8472 517.69507C 357.7432 517.4021 357.9022 517.0061 358.3122 516.9801L358.3122 516.9801L390.22974 514.92914C 418.6015 513.09894 446.97202 511.22183 475.31818 509.0771L475.31818 509.0771L480.32718 508.7151C 479.9382 468.4701 480.2682 428.2171 480.99518 387.9571C 481.6612 351.0381 481.6752 314.1091 482.7732 277.1951C 483.31918 258.87408 484.4962 240.59608 485.80618 222.3131C 487.14618 203.6151 489.2912 185.07509 491.21918 166.43309zM191.52708 380.4982C 191.18709 378.44818 193.76608 377.1782 194.9551 379.0532C 208.54608 400.4752 215.09909 423.7442 217.86108 448.8132C 220.30109 470.9382 219.58209 493.3822 218.3671 515.5652C 217.07109 539.2252 215.55908 562.8792 214.03009 586.5262L214.03009 586.5262L211.68097 622.7893L205.78609 713.6982C 205.36409 720.2012 203.88809 726.1142 198.2891 729.1372C 197.5801 729.7292 196.8411 730.2602 195.98009 730.7202C 192.9551 732.3372 188.94308 731.5202 187.19409 728.4162L187.19409 728.4162L187.89536 728.8775C 188.50621 729.2621 187.82028 728.725 185.83708 727.2682L185.83708 727.2682L184.15408 725.0902C 182.93109 723.2522 182.15009 721.4452 181.83609 719.2602C 181.34808 715.8652 181.98009 712.1412 182.20209 708.7292L182.20209 708.7292L186.06609 649.1172C 189.07109 602.7742 192.5801 556.4442 195.22508 510.07718C 196.45709 488.4672 197.32008 466.83618 196.73608 445.1882C 196.15408 423.6602 195.05708 401.76718 191.52708 380.4982zM309.10104 -18.55714L309.8551 -18.68371C 336.8501 -23.16771 366.2041 -22.32871 390.8751 -9.31571C 391.0791 -9.20871 390.98608 -8.86971 390.75708 -8.879709L390.75708 -8.879709L382.8162 -9.196841C 357.67728 -10.181286 332.61618 -10.763995 307.8981 -4.85771L307.8981 -4.85771L305.36768 -4.248156C 296.46597 -2.076666 287.17014 0.5812034 280.02008 6.4602904C 273.1861 12.08029 269.78308 20.74929 266.51108 28.73029L266.51108 28.73029L266.0735 29.78349C 262.75366 37.665813 258.5517 45.141354 251.27509 50.07029C 241.85008 56.45329 230.51509 55.67129 219.70808 56.538292C 200.68008 58.06729 185.1231 71.85729 177.38309 88.73229C 172.69609 98.95029 170.69708 110.40629 170.30109 121.58029C 170.09808 127.26929 170.06909 133.18028 170.82709 138.83128C 171.06909 140.63829 173.30309 147.22128 174.4421 147.0633C 176.97308 146.7123 179.2871 148.03229 180.0761 150.05528C 186.3281 144.01529 192.76009 138.14929 199.3991 132.4943C 215.94809 118.40129 233.77309 105.62829 252.54509 94.65229C 266.8721 86.27429 281.9841 77.97429 297.6331 71.69929C 296.3931 71.673294 295.17007 71.91929 293.9871 72.53429C 293.4691 72.80529 292.9541 72.15529 293.3631 71.72529C 298.29208 66.53929 304.19608 65.80129 310.1481 67.18429C 311.4181 66.78029 312.6891 66.38929 313.9651 66.01829C 314.6001 65.83329 314.91608 66.70829 314.3981 67.04629L314.3981 67.04629L312.9361 67.98029C 319.42908 70.15529 325.80408 74.43029 330.85107 77.80429C 345.3491 87.49329 358.11008 99.33829 371.04608 110.96129L371.04608 110.96129L373.3981 113.06839C 384.78467 123.23519 396.46127 133.1148 409.3981 141.27129C 416.17007 145.54028 423.28308 149.48929 430.74408 152.42628C 437.1431 154.9473 447.5621 156.53429 450.55908 163.29729C 453.22308 166.5333 452.11008 170.66328 448.99008 172.8413C 443.7281 178.6323 433.2021 174.8913 426.9321 172.4793C 419.37308 169.57129 412.05008 166.0763 405.0661 161.9773C 391.50708 154.01729 379.0051 144.12029 367.3591 133.59229C 355.19608 122.59629 343.72308 110.91529 331.8931 99.57429C 326.76736 94.66029 321.75995 89.63094 316.62646 84.72429L316.62646 84.72429L314.0481 82.28229C 311.4281 79.82529 307.6951 75.99529 303.7041 73.67729C 296.1851 78.16229 288.55008 82.46229 281.0991 87.06329C 270.6981 93.48529 260.6031 100.37029 250.6641 107.48229C 231.53009 121.17329 213.39809 136.5073 196.5651 152.94328C 165.69308 183.0853 139.39108 217.5053 116.414085 253.9513L116.414085 253.9513L114.669235 256.7288C 101.61244 277.5894 89.264984 299.12277 80.510086 322.17328C 70.87709 347.5383 66.192085 374.2113 63.647087 401.1363C 61.12109 427.8683 60.26909 454.7353 57.44609 481.4423C 54.55109 508.83328 48.847088 535.61926 42.35909 562.3553L42.35909 562.3553L40.81173 568.6939C 34.94112 592.63837 28.881819 616.5829 25.864088 641.0923C 24.25309 654.18427 23.284088 667.45526 23.50309 680.6533C 23.72309 693.9283 25.80909 706.9093 27.492088 720.0443C 28.137089 725.0763 23.18509 729.2763 18.75409 729.9433C 13.658089 730.7083 9.280089 727.4573 7.696089 722.72327C 2.758089 707.9663 1.861089 691.6533 2.016089 676.1643C 2.1720889 660.4393 4.179089 644.81726 7.003089 629.3633C 12.557089 598.9653 21.12809 569.1963 28.298088 539.1623C 34.61709 512.6903 38.85809 486.1723 41.14409 459.05328C 43.51709 430.9173 44.938087 402.6873 49.26709 374.7543C 53.54009 347.17828 61.58009 320.8383 73.705086 295.6933C 84.74509 272.7993 98.50709 251.25029 112.93509 230.3633C 130.45609 205.00029 149.69908 180.8653 171.20909 158.87529C 169.27708 158.79129 167.29309 158.1673 165.47108 157.0313C 159.8971 153.55429 157.30109 146.7533 156.50308 140.54329C 154.63509 126.01629 155.08609 110.85029 158.82208 96.64729C 164.84909 73.73529 180.49109 53.37729 203.16109 45.11829C 208.9961 42.99229 215.19908 42.21629 221.38309 42.06329C 227.25108 41.91729 233.6601 42.68229 239.32208 40.82229C 248.33444 37.859867 252.19745 27.245691 255.58124 19.19978L255.58124 19.19978L255.73709 18.83029C 260.07608 8.577291 265.2841 -0.21070968 274.6821 -6.6127095C 284.70877 -13.444356 297.27136 -16.55119 309.10104 -18.55714zM565.5986 21.99079C 573.7106 19.17679 583.8526 21.730791 591.7856 24.18879C 600.6236 26.928791 608.7906 31.97479 615.7926 37.96779C 623.17957 44.287792 629.2846 52.09179 633.5976 60.80979L633.5976 60.80979L634.00995 61.649685C 637.9494 69.7366 642.4359 80.83852 640.4496 89.72279C 640.3926 89.97479 640.3276 90.21779 640.2536 90.45279C 656.3486 98.37579 671.2126 108.29979 684.1566 120.87779C 699.2286 135.5228 711.9906 152.18779 722.7906 170.19179C 765.6843 241.69931 773.2338 327.5792 778.29987 409.12808L778.29987 409.12808L779.5634 429.80518C 782.31396 474.4541 785.53345 518.9973 793.89557 563.0298L793.89557 563.0298L794.50574 566.20874C 803.44434 612.3112 816.2398 658.766 814.9436 706.0598C 814.55457 720.2298 793.6126 720.1338 793.0056 706.0598C 790.7196 653.0868 778.3576 601.9408 769.9866 549.7958C 755.25757 458.05478 762.6376 363.4748 741.7676 272.6528C 733.5776 237.01079 720.89056 202.43779 702.77356 170.62279C 693.8246 154.90579 683.5856 139.7188 671.5916 126.15979C 661.2726 114.49279 650.5476 103.26479 638.4886 93.45679C 634.6346 97.31679 626.9356 95.34979 624.9236 89.72279C 623.54156 85.85579 623.9446 81.33479 623.0576 77.28379C 622.2346 73.52479 621.0996 69.79779 619.5876 66.25779C 616.5736 59.20279 612.1496 52.42779 607.0426 46.71779C 601.5256 40.54579 595.1846 35.41779 588.0896 31.18379C 580.9456 26.92079 573.13257 25.64779 565.5986 22.532791C 565.3446 22.42779 565.3206 22.08779 565.5986 21.99079zM597.11487 512.2857C 597.1269 511.9137 597.5659 511.7377 597.8359 511.9867C 600.6799 514.6037 602.39886 518.3597 604.4919 521.5787C 606.9059 525.2907 609.4409 528.9267 612.0989 532.4687C 617.42487 539.5647 623.3539 546.2527 629.3299 552.80566C 634.8879 558.8997 640.8119 564.7367 646.9569 570.2387C 653.61487 576.20166 661.07587 581.5207 667.1249 588.1227C 679.7467 601.89874 681.78625 620.8062 684.44916 638.55945L684.44916 638.55945L684.7409 640.4797C 686.36487 651.0157 687.8199 661.5797 689.1319 672.1587C 689.7699 677.3047 690.4059 682.4557 690.9259 687.6147L690.9259 687.6147L691.0847 689.2492C 691.5483 694.29987 691.67334 699.42377 688.7729 703.8367C 685.6679 708.5577 678.6089 710.2127 674.41187 705.68567C 667.20087 697.9087 668.5529 684.09467 667.61487 674.08966C 666.84 665.8165 665.9609 657.5537 664.9767 649.303L664.9767 649.303L664.4759 645.1787C 663.3159 635.79266 662.3739 626.21967 660.22687 616.9967C 658.33386 608.8747 654.72687 602.7447 648.8089 596.8607C 642.84686 590.9337 636.6519 585.4007 631.14886 579.0177C 625.3119 572.2477 620.0469 564.9887 615.3029 557.4127C 611.2453 550.9327 607.9928 543.881 605.01306 536.83746L605.01306 536.83746L604.51886 535.6637C 601.6389 528.7947 596.8899 519.85266 597.11487 512.2857zM701.2272 217.2412C 701.29016 216.28319 702.7062 216.26819 702.7272 217.2412C 702.9062 225.48119 703.0782 233.72119 703.2492 241.96219C 704.6252 308.3642 703.77716 374.9232 710.4392 441.0972C 713.5812 472.2982 719.3672 503.0402 726.0622 533.6542C 729.48816 549.3192 733.0822 564.9472 736.4972 580.6142C 739.8252 595.8832 743.39417 611.2262 746.0342 626.6372C 748.6284 641.7836 750.95166 657.04675 751.9945 672.38776L751.9945 672.38776L752.12317 674.38916C 752.5722 681.8202 754.7152 692.7502 750.62317 699.3372C 746.1892 706.4732 737.7002 706.6012 732.9492 699.7892C 728.48816 693.39417 729.59717 682.0182 728.8092 674.38916C 728.0082 666.6162 727.1612 658.8372 726.1992 651.0822C 724.3222 635.9552 721.8492 620.8622 719.27716 605.8382C 713.92017 574.5502 706.1502 543.6562 700.41516 512.4182C 694.5372 480.40918 690.3592 448.1712 690.18317 415.58118C 690.0082 382.7142 693.4872 349.9112 695.24316 317.11618C 697.02716 283.8082 699.0552 250.52519 701.2272 217.2412zM387.54688 10.70749C 389.3299 4.70449 395.6219 0.95149034 401.7599 2.6374903C 407.3849 4.1834903 412.0289 11.01049 409.8299 16.85149C 407.4299 23.22549 403.2359 28.66049 399.6999 34.45349C 396.4339 39.80649 391.6699 44.021492 388.3429 49.27949L388.3429 49.27949L392.00912 53.232002C 393.8434 55.20365 395.6829 57.16349 397.54288 59.08949L397.54288 59.08949L403.93738 65.71331C 408.9176 70.86097 413.9292 75.98119 419.08188 80.95049C 434.2339 95.56549 449.6259 109.70049 466.59488 122.21649C 470.4579 125.06449 474.3509 127.89649 478.35287 130.5485L478.35287 130.5485L479.84515 131.53737C 482.59076 133.335 485.6541 135.10208 488.9709 134.79749C 497.0305 134.05748 504.31262 125.49822 509.851 120.17084L509.851 120.17084L510.1409 119.89349C 523.8659 106.83449 536.5749 92.55649 547.6859 77.20449C 550.1529 73.79349 552.5419 70.32449 554.86786 66.81449C 549.4959 60.53949 550.7789 48.29049 550.4829 40.68049C 550.27386 35.32949 550.2579 29.97749 550.2289 24.62249L550.2289 24.62249L550.21423 23.542654C 550.1488 20.07667 549.99255 16.752459 552.2419 13.900491C 552.37286 13.73549 552.64386 13.74049 552.8109 13.82749C 555.89166 15.441824 556.84094 18.144785 558.1555 21.1767L558.1555 21.1767L558.2929 21.49149C 559.8929 25.13049 561.42487 28.80349 562.9749 32.46349C 564.5979 36.29549 566.0859 40.18349 567.5939 44.06149C 568.2959 45.86549 568.9659 47.67649 569.6209 49.49749C 570.0199 50.660492 570.43286 51.81749 570.8569 52.97249L570.8569 52.97249L570.9569 53.06149C 571.5169 53.53649 571.9919 54.03849 572.4009 54.55649C 574.1199 55.41649 575.4859 56.98349 576.1269 59.285492C 577.5219 64.29649 574.6349 68.38249 572.0599 72.35949C 561.5999 88.51949 549.6759 103.91849 536.4219 117.88749C 529.8379 124.82749 522.9129 131.45549 515.7029 137.7425L515.7029 137.7425L514.44244 138.8342C 507.96558 144.40007 500.93378 149.67241 492.28387 150.97449C 482.16132 152.49771 473.923 147.4634 466.1742 141.66469L466.1742 141.66469L465.40088 141.08249C 458.0549 135.52148 450.8569 129.76549 443.8829 123.74449C 429.66388 111.46849 416.1369 98.28749 404.1319 83.82649C 392.4539 69.76049 380.9109 54.03249 373.7129 37.10749C 373.2739 36.07649 374.4279 34.99749 375.33188 35.85849C 378.8479 39.20549 382.2309 42.73449 385.57388 46.30849C 385.6669 41.04749 384.6959 35.74149 385.2359 30.44749C 385.8949 24.012491 385.7049 16.90349 387.54688 10.70749z" stroke="none" fill="#000000" fill-rule="nonzero" />
			</g>
		</g>
		<g transform="matrix(0.9978903 0 0 1 372 180)">
			<g>
                <path d="M402.06625 224.2205C 393.01572 186.06703 373.2285 150.56084 341.5498 121.8656C 246.2218 27.6196 71.1588 78.7746 71.9518 220.7966C 68.5328 237.3846 67.1448 254.4406 68.2768 271.3576C 68.7448 278.5756 71.8688 288.6486 67.6718 295.1446C 58.2048 307.2976 52.7028 316.2556 55.9248 332.4216C 58.6168 346.5366 68.2228 356.5366 81.1868 361.8526C 88.9618 364.0836 96.3388 368.9436 99.2188 376.3516C 116.5248 408.0356 129.3458 434.3896 156.6288 455.9826C 163.6688 461.5416 235.87466 494.8836 259.6658 494.8836C 329.31705 494.8836 417.1028 469.6536 418.5598 391.8536C 418.8118 374.7656 415.8128 357.4786 413.9318 340.5256C 409.35297 301.83755 410.96838 261.74844 402.06625 224.2205z" stroke="none" fill="#D08B5B" fill-rule="nonzero" />
                <path d="M400.499 205.1369C 400.521 204.6649 401.197 204.5589 401.328 205.0249C 403.917 214.2099 405.384 223.5669 407.409 232.8949C 409.359 241.8799 411.2 250.8909 412.732 259.9549C 415.62308 277.06137 418.05914 294.21213 420.32495 311.408L420.32495 311.408L420.888 315.7079C 424.826 345.9649 431.33 377.4859 425.643 407.9199C 420.79 433.8889 404.519 454.8189 383.55 470.1639C 363.695 484.6929 339.622 494.0169 315.72 499.3179C 290.066 505.0089 259.658 506.7069 238.785 487.8949C 230.429 480.3619 241.82 465.4159 250.885 472.2139C 272.171 488.1727 299.24936 483.46805 323.2681 477.11783L323.2681 477.11783L323.995 476.9249C 345.076 471.3099 366.297 462.7989 383.033 448.4409C 401.536 432.5659 410.685 410.5339 411.742 386.3699C 412.33502 372.79373 411.0693 359.23334 409.704 345.7372L409.704 345.7372L409.552 344.2379C 407.985 328.8039 406.341 313.3769 404.824 297.9369C 403.43988 283.85757 402.24564 269.69635 401.6145 255.55406L401.6145 255.55406L401.31998 248.42116C 400.7066 234.04008 399.88086 219.44885 400.499 205.1369zM150.8565 85.645C 185.4945 67.612 225.3025 61.158 263.8505 67.21C 300.9085 73.028 334.9185 92.15 360.3395 119.569C 372.7505 132.956 383.7665 148.441 390.8065 165.358C 394.3035 173.762 397.0415 182.529 398.4995 191.533C 399.2495 196.162 399.9865 200.958 400.1275 205.651C 400.2575 209.996 398.9815 214.071 399.1325 218.488C 399.1555 219.179 398.0965 219.312 397.9355 218.65C 396.7315 213.725 393.8305 210.001 392.0105 205.323C 390.65018 201.83 389.10715 198.41988 387.53622 195.02017L387.53622 195.02017L386.1865 192.107C 382.2685 183.64 377.5855 175.521 372.9525 167.431C 363.6235 151.137 351.6535 136.329 337.6375 123.834C 313.0285 101.896 281.4575 87.735 248.5065 85.185C 214.3055 82.537 179.6155 90.689 150.4075 108.747C 121.2015 126.804 99.1175 154.874 87.6515 187.193C 81.8665 203.502 78.6715 220.495 77.9285 237.773C 77.5525 246.519 77.9035 255.338 78.5165 264.067L78.5165 264.067L78.820984 268.22955C 79.17778 273.2214 79.422325 278.19403 78.6765 283.065C 83.9445 281.422 89.4665 280.741 95.0085 281.554C 103.2435 282.762 108.1635 286.138 111.8575 293.496C 112.0505 293.88 111.6635 294.264 111.2805 294.073C 106.4915 291.683 98.7435 292.941 93.6715 294.194C 88.3935 295.498 83.6395 297.766 79.1545 300.832C 70.8575 306.501 64.3535 315.286 62.7575 325.365C 61.2145 335.101 65.2115 344.959 71.9255 351.937C 75.3815 355.531 79.5125 358.638 84.1375 360.574C 89.7505 362.925 95.3065 362.852 100.2725 366.733C 103.3425 369.132 102.6005 373.237 100.5185 375.901C 110.9955 387.389 120.2865 399.957 130.7625 411.49C 135.6185 416.8358 140.43579 422.18787 145.08864 427.70572L145.08864 427.70572L146.8255 429.783C 151.4715 435.39 158.8635 441.313 160.9865 448.365C 162.3075 452.752 157.6095 458.49 152.8605 456.491C 145.57587 453.42368 140.37561 445.4433 135.45316 439.32248L135.45316 439.32248L135.1325 438.926C 129.9705 432.583 125.3875 425.887 121.1975 418.87L121.1975 418.87L119.81979 416.55835C 112.24317 403.816 104.7317 390.6006 99.9005 376.602C 99.5815 376.93 99.2435 377.229 98.8875 377.482C 91.9275 382.431 81.8095 378.626 74.8585 375.412C 68.2965 372.379 62.2805 367.815 57.5915 362.314C 47.3935 350.352 42.6925 334.86 46.0985 319.335C 48.9835 306.184 58.0985 293.392 70.0485 286.74C 64.5325 280.39 62.2485 271.83 60.7285 263.461C 58.7885 252.778 58.4015 241.83 58.9285 230.997C 59.9795 209.42 65.5325 188.151 74.1165 168.393C 89.4745 133.04 116.6265 103.468 150.8565 85.645zM77.9552 321.556C 85.2252 320.194 92.0002 319.865 99.0122 322.941C 106.6182 326.28 111.9712 331.792 116.9472 338.25C 122.60901 345.5958 108.098404 353.62082 104.43971 343.86896L104.43971 343.86896L104.3322 343.568C 103.3522 340.681 101.5972 337.89 99.3742 335.321C 98.7072 336.343 97.8152 337.243 96.7672 337.758C 95.4982 338.382 93.5602 337.95 93.2552 336.329C 92.9172 334.53 93.2912 332.35 94.3292 330.827L94.3292 330.827L94.4712 330.619C 89.4272 326.56 83.3602 323.595 77.9552 322.641C 77.4152 322.545 77.4212 321.656 77.9552 321.556z" stroke="none" fill="#000000" fill-rule="nonzero" />
			</g>
		</g>
		<g transform="matrix(1 0 0 1 531 366)">
			<g>
                <path d="M146.58656 240.92656C 139.86429 238.1842 133.86632 233.60979 129.48123 227.76625C 127.95669 225.7348 127.5614 223.58963 127.88122 221.62758C 128.24083 219.4214 129.54604 217.4219 131.32605 216.08069C 133.11157 214.73534 135.34503 214.07184 137.50433 214.41006C 139.38063 214.70396 141.2484 215.7313 142.7266 217.86191L142.7266 217.86191L143.03543 218.28798C 145.64244 221.81493 149.03963 224.70876 152.91048 226.57399C 156.64134 228.37178 160.81393 229.21088 165.1319 228.72292C 173.35573 227.79395 179.02402 223.3464 185.04877 217.30672C 185.79556 216.54419 186.54283 215.75777 187.29372 214.95868C 187.76791 214.23431 188.42598 213.76875 189.15663 213.52449C 189.96786 213.25327 190.88557 213.26862 191.72612 213.56195C 192.53683 213.84486 193.26157 214.381 193.74753 215.09454C 194.2094 215.7727 194.47125 216.61049 194.38628 217.57414C 193.83482 223.83328 190.56247 229.4193 185.91423 233.8055C 180.75177 238.67694 173.90855 242.04703 167.46596 243.22903C 160.3681 244.53105 153.13559 243.59822 146.58656 240.92656zM170.8143 144.36716C 178.36568 148.9572 189.87166 159.6603 181.74812 171.03957C 172.18593 181.07306 158.41853 169.56898 151.6342 164.36613C 145.34344 160.3339 138.27544 170.70451 144.112 175.41283C 193.13574 211.70805 213.03061 145.56738 174.63368 138.97038C 170.40605 138.24342 168.83589 142.94717 170.8143 144.36716zM82.9633 102.1464C 83.79763 91.79012 99.5703 89.4384 101.1393 99.6864C 102.5443 108.8664 100.8903 117.2994 96.7553 125.5644C 92.8043 133.4604 82.87378 129.77655 82.12278 122.58654C 81.1161 112.94865 82.4443 108.58859 82.9633 102.1464zM203.027 97.5615C 205.226 94.6815 208.401 92.7155 212.205 93.8265C 224.09 97.2995 220.587 114.1725 216.413 122.3855C 214.145 126.8455 206.814 127.9765 203.501 124.0495C 198.101 117.6455 195.515 104.8565 202.38 98.5485C 202.566 98.2225 202.773 97.8935 203.027 97.5615zM96.5879 56.8305L98.46527 56.501904C 104.27307 55.49746 111.4944 54.5323 115.6029 59.2015C 117.7819 61.6775 118.5319 66.2795 115.6029 68.6495C 110.4509 72.8195 104.7549 71.2035 98.5809 71.5565C 93.4929 71.8485 88.6029 72.6905 83.7019 74.0915C 72.9499 77.1645 64.1889 82.7745 55.0059 88.9345C 53.8009 89.7425 52.5709 88.2015 53.1459 87.0745C 58.4469 76.6915 68.7199 68.1625 79.0099 62.9635C 84.5019 60.1885 90.5119 57.8865 96.5879 56.8305zM192.19287 52.179386L193.6298 52.47347C 209.26704 55.742077 229.58347 62.271393 236.98846 77.630844C 237.27063 79.80273 236.97249 80.2682 236.73006 80.57232L236.73006 80.57232L236.64934 80.67352C 236.44957 80.93322 236.29018 81.291214 235.34879 81.58681C 235.08754 81.52457 234.82372 81.45864 234.55708 81.38877C 231.16277 80.499245 228.4772 79.273796 225.8773 78.00225L225.8773 78.00225L223.05833 76.61345C 219.78778 75.009834 216.48836 73.46458 212.99171 72.323814C 205.52959 69.88987 197.85414 68.1753 190.05978 67.259766C 188.3704 67.0615 186.74365 66.49134 185.46027 65.514175C 184.24207 64.586655 183.31145 63.302475 182.88713 61.59552C 182.33722 59.38645 182.49525 57.714005 183.68051 55.7211C 184.57176 54.224472 185.84698 53.18711 187.31126 52.591423C 188.80403 51.984146 190.50354 51.84098 192.19287 52.179386z" stroke="none" fill="#000000" fill-rule="nonzero" />
			</g>
		</g>
		<g transform="matrix(1 0 0 1 494.99994 517.99963)">
			<g>
                <path d="M117.72475 95.19303C 125.82099 76.22577 143.49152 62.285877 163.83649 57.189434C 178.77663 53.456448 194.4558 53.575573 209.68556 55.057156C 217.66496 55.82798 226.22359 56.459656 233.74359 59.42282C 240.16507 61.954525 245.39812 66.73964 249.33289 72.356636C 254.01666 79.01275 257.20242 86.63088 259.43945 94.439224C 259.75702 95.549416 260.05563 96.66761 260.33426 97.79181C 259.36157 103.683105 257.2963 108.69746 251.83955 112.40141C 246.51463 116.01828 240.16107 117.497856 233.82748 118.02342C 233.20631 117.725105 232.60611 117.41878 232.05585 117.10444C 222.18596 111.45441 215.23918 98.10214 202.78174 99.90907C 191.6645 101.5228 184.34624 115.510735 177.73502 123.7135C 156.51321 126.18614 135.30739 119.809326 118.04033 107.67436C 117.16349 103.52093 117.112564 99.33245 117.72475 95.19303M274.75812 80.804665C 273.06036 76.04057 270.9222 71.42664 268.38757 67.08C 260.0087 52.705643 247.14578 41.25241 231.87608 34.705414C 195.75407 19.238894 149.01617 30.14154 119.84493 55.507637C 109.88017 64.1789 99.80456 76.92152 96.75761 90.62816C 95.84782 90.80835 94.98896 91.28185 94.2819 91.94856C 73.2059 78.67939 51.501736 65.91275 34.518303 47.519104C 22.18469 34.154827 13.606088 18.338932 8.353067 0.9593662C 7.923638 -0.471162 5.616703 -0.26193848 5.68661 1.3207523C 5.7065835 1.6911479 5.726557 2.0605426 5.7465305 2.4309382C 5.5268226 1.750211 4.4882026 2.1005852 4.4083085 2.761291C 1.5820637 23.873844 -1.9532391 46.257755 1.3024352 67.48043C 3.2498477 80.14396 9.002205 89.414856 16.691988 99.42555C 24.93104 110.15601 34.258648 120.13668 43.795975 129.7079C 49.847935 135.78339 56.169537 142.79088 63.57969 147.24564C 72.198235 152.42117 81.97525 156.35637 91.17303 160.34964C 100.530594 164.424 110.02798 168.188 119.70512 171.45149C 139.04941 177.99849 159.04285 182.52332 179.38582 184.50545C 195.67418 186.08713 214.28944 187.80997 229.89871 181.68242C 241.86281 176.98741 251.51997 168.49934 259.1798 158.28743C 267.5187 147.16556 274.11096 134.49702 277.75513 121.13775C 281.54208 107.260925 275.55603 83.04205 274.75812 80.804665" stroke="none" fill="#000000" fill-rule="nonzero" />
			</g>
		</g>
		<g transform="matrix(1 0 0 1 400 480)">
			<g>
			</g>
		</g>
		<g transform="matrix(1 0 0 1 419 421)">
			<g>
			</g>
		</g>
	</g>
</g>
</svg>